<?xml version="1.0" encoding="UTF-8" standalone="no"?>
<!-- Created with Inkscape (http://www.inkscape.org/) -->
<!-- ClipArt by Arvin61r58 (http://openclipart.org/user-detail/Arvin61r58) -->

<svg
   xmlns:dc="http://purl.org/dc/elements/1.1/"
   xmlns:cc="http://creativecommons.org/ns#"
   xmlns:rdf="http://www.w3.org/1999/02/22-rdf-syntax-ns#"
   xmlns:svg="http://www.w3.org/2000/svg"
   xmlns="http://www.w3.org/2000/svg"
   xmlns:xlink="http://www.w3.org/1999/xlink"
   width="445.00256"
   height="127.49976"
   viewBox="0 0 750.00256 187.49976"
   id="svg4225"
   version="1.1">
  <defs
     id="defs4227">
    <linearGradient
       gradientUnits="userSpaceOnUse"
       y2="757.14386"
       x2="553.95825"
       y1="757.14386"
       x1="80.799919"
       id="linearGradient5180"
       xlink:href="#linearGradient4310"
       gradientTransform="matrix(1.3540883,0,0,1.1074312,-92.012122,-531.9742)" />
    <linearGradient
       id="linearGradient4310">
      <stop
         id="stop4312"
         offset="0"
         stop-color="#eaeff1" />
      <stop
         id="stop4314"
         offset="0.071429"
         stop-color="#e6ebee" />
      <stop
         id="stop4316"
         offset="0.142857"
         stop-color="#dde2e6" />
      <stop
         id="stop4318"
         offset="0.214286"
         stop-color="#d2d7dd" />
      <stop
         id="stop4320"
         offset="0.285714"
         stop-color="#c6ccd3" />
      <stop
         id="stop4322"
         offset="0.357143"
         stop-color="#c9d0d7" />
      <stop
         id="stop4324"
         offset="0.428571"
         stop-color="#dce0e5" />
      <stop
         id="stop4326"
         offset="0.5"
         stop-color="#dfe5e8" />
      <stop
         id="stop4328"
         offset="0.571429"
         stop-color="#d9dfe4" />
      <stop
         id="stop4330"
         offset="0.642857"
         stop-color="#d3d7dd" />
      <stop
         id="stop4332"
         offset="0.714286"
         stop-color="#cad0d8" />
      <stop
         id="stop4334"
         offset="0.785714"
         stop-color="#c4cbd3" />
      <stop
         id="stop4336"
         offset="0.857143"
         stop-color="#cbd0d8" />
      <stop
         id="stop4338"
         offset="0.928571"
         stop-color="#dce1e5" />
      <stop
         id="stop4340"
         offset="1"
         stop-color="#e0e6ea" />
    </linearGradient>
  </defs>
  <metadata
     id="metadata4230">
    <rdf:RDF>
      <cc:Work
         rdf:about="">
        <dc:format>image/svg+xml</dc:format>
        <dc:type
           rdf:resource="http://purl.org/dc/dcmitype/StillImage" />
        <dc:title></dc:title>
        <dc:description>silver banner/ribbon with drop shadow</dc:description>
        <dc:subject>
          <rdf:Bag>
            <rdf:li>sliver</rdf:li>
            <rdf:li>ribbon</rdf:li>
            <rdf:li>banner</rdf:li>
            <rdf:li>drop shadow</rdf:li>
            <rdf:li>gradient</rdf:li>
          </rdf:Bag>
        </dc:subject>
        <dc:creator>
          <cc:Agent>
            <dc:title>Arvin61r58</dc:title>
          </cc:Agent>
        </dc:creator>
        <dc:publisher>
          <cc:Agent>
            <dc:title>Openclipart.org</dc:title>
          </cc:Agent>
        </dc:publisher>
        <dc:identifier>https://openclipart.org/</dc:identifier>
        <dc:source>https://openclipart.org/user-detail/Arvin61r58</dc:source>
        <cc:license
           rdf:resource="http://creativecommons.org/publicdomain/zero/1.0/" />
      </cc:Work>
      <cc:License
         rdf:about="http://creativecommons.org/publicdomain/zero/1.0/">
        <cc:permits
           rdf:resource="http://creativecommons.org/ns#Reproduction" />
        <cc:permits
           rdf:resource="http://creativecommons.org/ns#Distribution" />
        <cc:permits
           rdf:resource="http://creativecommons.org/ns#DerivativeWorks" />
      </cc:License>
    </rdf:RDF>
  </metadata>
  <g
     id="layer1"
     transform="translate(-7.4987293,-463.61233)">
    <g
       transform="matrix(1.1163006,0,0,1.0285689,5.4746055,238.24278)"
       id="g4472">
      <path
         id="path4769"
         d="m 331.5522,250.36496 c -66.20284,0.2195 -131.95354,6.60803 -197.10071,14.25624 0,5.06988 0,10.13977 0,15.20966 -33.2403,4.14459 -66.46364,8.35621 -99.74979,12.32265 25.25948,12.41854 50.51897,24.8371 75.77846,37.25566 -25.25949,19.12953 -50.51898,38.25906 -75.77846,57.38861 58.65007,-6.9097 116.79307,-15.73727 175.50747,-22.39736 0,-5.39523 0,-10.79046 0,-16.18569 68.69853,-7.95603 139.04402,-10.16156 208.28289,-4.29577 15.63962,1.28821 31.23529,2.81897 46.79313,4.51358 0,5.39317 0,10.78635 0,16.17952 58.68494,6.70485 116.84236,15.42397 175.50746,22.20627 -25.25256,-19.07475 -50.50511,-38.14948 -75.75766,-57.22423 25.25255,-12.47472 50.5051,-24.94944 75.75766,-37.42416 -33.28962,-3.89731 -66.51502,-8.04922 -99.74982,-12.16237 0,-5.07606 0,-10.1521 0,-15.22815 C 471.81351,256.6954 401.9224,249.95018 331.5522,250.36496 Z"
         style="opacity:0.8;fill:#717171;fill-opacity:1;fill-rule:evenodd;stroke:none;stroke-width:2.12211394" />
      <path
         style="fill:#ffffff;fill-opacity:1;fill-rule:evenodd;stroke:#c0c0c0;stroke-width:1.98043919"
         d="m 331.22614,234.70254 c -69.68721,0.23105 -138.89847,6.95582 -207.47442,15.00656 0,5.33673 0,10.67345 0,16.01017 -34.9898,4.36274 -69.96174,8.79602 -104.999791,12.97122 C 45.34086,291.76264 71.9298,304.8348 98.51872,317.90696 71.9298,338.04332 45.34086,358.17968 18.751929,378.31603 80.48885,371.04267 141.692,361.75049 203.49663,354.73986 c 0,-5.67918 0,-11.35838 0,-17.03756 72.31425,-8.37476 146.36212,-10.69638 219.24514,-4.52187 16.46277,1.35601 32.87926,2.96734 49.25594,4.75114 0,5.67702 0,11.35405 0,17.03107 61.77363,7.05774 122.99195,16.23575 184.7447,23.37503 -26.58165,-20.07868 -53.16329,-40.15736 -79.7449,-60.23604 26.58161,-13.13128 53.16325,-26.26257 79.7449,-39.39384 -35.04171,-4.10245 -70.01581,-8.47287 -104.99982,-12.80251 0,-5.34321 0,-10.68642 0,-16.02963 -72.87298,-8.50949 -146.44256,-15.60972 -220.51645,-15.17311 z"
         id="path4573" />
      <path
         style="fill:url(#linearGradient5180);fill-opacity:1;stroke:#c0c0c0;stroke-width:1.86647773;stroke-linecap:round;stroke-linejoin:round;stroke-miterlimit:4;stroke-dasharray:none;stroke-opacity:1"
         d="m 331.22614,234.70254 c -69.68721,0.23105 -138.89847,6.95582 -207.47442,15.00656 0,5.33673 0,10.67345 0,16.01017 -34.9898,4.36274 -69.96174,8.79602 -104.999791,12.97122 C 45.34086,291.76264 71.9298,304.8348 98.51872,317.90696 71.9298,338.04332 45.34086,358.17968 18.751929,378.31603 80.48885,371.04267 141.692,361.75049 203.49663,354.73986 c 0,-5.67918 0,-11.35838 0,-17.03756 72.31425,-8.37476 146.36212,-10.69638 219.24514,-4.52187 16.46277,1.35601 32.87926,2.96734 49.25594,4.75114 0,5.67702 0,11.35405 0,17.03107 61.77363,7.05774 122.99195,16.23575 184.7447,23.37503 -26.58165,-20.07868 -53.16329,-40.15736 -79.7449,-60.23604 26.58161,-13.13128 53.16325,-26.26257 79.7449,-39.39384 -35.04171,-4.10245 -70.01581,-8.47287 -104.99982,-12.80251 0,-5.34321 0,-10.68642 0,-16.02963 -72.87298,-8.50949 -146.44256,-15.60972 -220.51645,-15.17311 z"
         id="path4579" />
      <path
         style="fill:none;stroke:#c0c0c0;stroke-width:1.86647773;stroke-linecap:round;stroke-linejoin:round;stroke-miterlimit:4;stroke-dasharray:none;stroke-opacity:1"
         d="m 193.38028,338.85299 c -23.28053,2.71503 -46.44683,5.86858 -69.62856,8.95462 26.58894,2.3093 53.17787,4.61862 79.76681,6.92793 -0.007,-5.67775 -0.0146,-11.3555 -0.022,-17.03324 -3.37212,0.38356 -6.74424,0.76712 -10.11635,1.15069 z"
         id="path4581" />
      <path
         style="fill:none;stroke:#c0c0c0;stroke-width:1.86647773;stroke-linecap:round;stroke-linejoin:round;stroke-miterlimit:4;stroke-dasharray:none;stroke-opacity:1"
         d="m 471.99771,354.96264 c 26.58163,-2.31219 53.16327,-4.62439 79.74488,-6.93658 -26.53209,-3.54689 -53.07234,-7.08274 -79.74488,-10.09449 0,5.67702 0,11.35405 0,17.03107 z"
         id="path4583" />
      <path
         style="fill:none;stroke:#c0c0c0;stroke-width:1.86647773;stroke-linecap:round;stroke-linejoin:round;stroke-miterlimit:4;stroke-dasharray:none;stroke-opacity:1"
         d="m 123.77362,347.82275 c 0,-27.36279 0,-54.72557 0,-82.08834 0,27.36277 0,54.72555 0,82.08834 z"
         id="path4585" />
      <path
         style="fill:none;stroke:#c0c0c0;stroke-width:1.86647773;stroke-linecap:round;stroke-linejoin:round;stroke-miterlimit:4;stroke-dasharray:none;stroke-opacity:1"
         d="m 551.74259,348.0412 c 0,-27.37432 0,-54.74863 0,-82.12295 0,27.37432 0,54.74863 0,82.12295 z"
         id="path4587" />
      <path
         style="fill:#b3b3b3;fill-opacity:0.75977652;fill-rule:evenodd;stroke:none;stroke-width:1.06105697"
         d="m 193.46947,339.69993 c -20.43654,2.39274 -40.77284,5.17196 -61.12266,7.89165 23.34081,2.0352 46.68162,4.07038 70.02243,6.10557 -0.005,-5.00377 -0.0129,-10.00755 -0.0193,-15.01132 -2.96017,0.33806 -5.92034,0.67607 -8.88054,1.0141 z"
         id="path4575" />
      <path
         style="fill:#b3b3b3;fill-opacity:0.75977652;fill-rule:evenodd;stroke:none;stroke-width:1.06105697"
         d="m 473.01488,353.95845 c 23.04258,-2.0253 46.08515,-4.0506 69.1277,-6.07589 -23.00055,-3.10351 -46.00584,-6.20561 -69.1277,-8.84197 0,4.97261 0,9.94525 0,14.91786 z"
         id="path4577" />
    </g>
  </g>
</svg>
