<?xml version="1.0" encoding="UTF-8" standalone="no"?>
<svg id="svg2" xmlns:rdf="http://www.w3.org/1999/02/22-rdf-syntax-ns#" xmlns="http://www.w3.org/2000/svg" height="1524pt" width="4452pt" version="1.1" xmlns:cc="http://creativecommons.org/ns#" xmlns:dc="http://purl.org/dc/elements/1.1/" viewBox="0 0 4452 1524">
<path id="path4148" d="m4.5879 0c55.225 122.74 120.96 243.31 211.94 343.47 30.5 32.17 65.21 62.14 107.31 77.71-46.53 57.28-97.55 110.8-150.54 162.12-52.64 48.54-107.72 96.72-173.3 126.96v2.31c304.91 59 617.3 77.55 927.3 62.55 0.15 212.32 0.71 424.68-0.29 636.98 562.19-105.2 1134.4-153.9 1705.9-160.5 388.2-3.4 776.6 11.8 1163.2 47.2-17.1 92.9-37.5 185.6-53.3 278.7 101.6-4 203.4-2.6 305.1 0.8 302.7 12.6 605.9 49.1 898.3 130.5 166.2 46.8 329.1 108.7 478.4 196.2h1.1c-30.9-124.6-69.5-249-133.5-361-25.3-44.2-58.3-85.6-100.7-113.8 77.8-63.4 159.7-122.4 247.7-171 40.2-20.9 81.7-40.2 125.8-51.5v-1.1c-295.5-119.2-607-198.1-922.6-240.86 0.1-168.38 0.2-336.75 0-505.12-553.6-139.56-1125.2-200.03-1695.3-206.5-410.4-3.42-821 20.58-1228.4 70.66 0.4-107.7-0.7-215.43 0.6-323.12-269.8 61.615-545.6 97.239-822.11 108.1-299.28 8.06-605.63-9.872-890.39-109.76h-2.2121z" transform="scale(.8)" fill="#e46f6f"/>
<path id="path6" fill="#faa" d="m22.676 16.125c47.337 102.22 102.96 201.86 173.89 289.8 39.22 45.58 83.84 94.58 144.58 109.03-89.94 110.65-189.79 218.13-312.35 292.54 295.24 55.62 597.45 72.22 897.24 57.35 0.7-101.3-0.31-202.66 0.49-303.98 249.37-144.62 497.97-290.79 747.17-435.79 1.3-1.383 4.4-1.82 4.7-4.07-259.2 56.088-523.5 89.22-788.55 99.01-291.36 7.49-588.84-10.66-867.17-103.88zm2837.1 247.56c-39.7 0.01-79.4 0.29-119 0.82-316.9 4.18-633.8 25-948.8 61.23-39.3 4.74-78.7 8.62-117.6 16.17-245.3 42.14-491.2 84.03-736.12 126.55-1.84 309.87-0.2 621.04-0.82 931.44 571.24-105 1152.4-153.6 1732.8-158.5 657.1-2.1 1316 44 1963.6 158.3-0.3-310.1-0.2-620.19-0.1-930.29-0.9-1.17-2.2-1.92-3.6-2.22-578.3-143.84-1175.3-203.66-1770.4-203.5zm1784 712.67c-0.2 143.14 0.1 286.24-0.1 429.34 0.4 6.2-3.6 13.7-10.5 13.9-270.7 48-541.1 97.3-811.9 144.4 229 0.8 462 12.3 690.5 45.5 310.8 44.5 622.2 121.9 898.4 275.3-29.6-117.5-67.7-234.6-128.9-339.8-26.5-44.4-60.9-89-107.2-112.3 109.6-90.3 226.4-177.6 361-226.5-51.4-23.1-106.1-40.3-159.3-59.5-238-79.1-483.1-138.4-732-170.34z" transform="scale(.8)"/>
<path id="path10" d="m3486.7 621.4c23.5-5.85 42.7 14.83 48.3 35.67 8.8-15.84 24-30.95 43.9-28.17 24.1 1.94 39.1 31.38 27.6 52.64-17.2 31.75-49.4 51.97-80.3 68.49-25.1-20.51-49.5-44.47-62.6-74.69-9.3-20.21 0-48.66 23.1-53.94z" fill="#f23115"/>
<path id="path12" d="m957.69 629.44c27.61-7.44 49.61 24.78 40.14 49.39-11.56 32.46-36.66 58.63-62.87 80.09-21.31-11.05-41.78-24.15-59.72-40.16-13.18-12.38-27.13-28.17-25.25-47.65 0.95-18.33 17.68-33.57 36.03-33.03 17.42 0.21 30.49 14 38.95 27.77 4.38-16.18 15.4-32.71 32.72-36.41z" fill="#f23115"/>
</svg>
